<?xml version="1.0" encoding="utf-8" standalone="no"?>
<!DOCTYPE svg PUBLIC "-//W3C//DTD SVG 1.1//EN"
  "http://www.w3.org/Graphics/SVG/1.1/DTD/svg11.dtd">
<svg xmlns:xlink="http://www.w3.org/1999/xlink" width="864.049219pt" height="472.086pt" viewBox="0 0 864.049219 472.086" xmlns="http://www.w3.org/2000/svg" version="1.1">
 <metadata>
  <rdf:RDF xmlns:dc="http://purl.org/dc/elements/1.1/" xmlns:cc="http://creativecommons.org/ns#" xmlns:rdf="http://www.w3.org/1999/02/22-rdf-syntax-ns#">
   <cc:Work>
    <dc:type rdf:resource="http://purl.org/dc/dcmitype/StillImage"/>
    <dc:date>2026-09-04</dc:date>
    <dc:format>image/svg+xml</dc:format>
    <dc:creator>
     <cc:Agent>
      <dc:title>FlashInfer validation figure builder</dc:title>
     </cc:Agent>
    </dc:creator>
   </cc:Work>
  </rdf:RDF>
 </metadata>
 <defs>
  <style type="text/css">*{stroke-linejoin: round; stroke-linecap: butt}</style>
 </defs>
 <g id="figure_1">
  <g id="patch_1">
   <path d="M 0 472.086 
L 864.049219 472.086 
L 864.049219 -0 
L 0 -0 
z
" style="fill: #ffffff"/>
  </g>
  <g id="axes_1">
   <g id="patch_2">
    <path d="M 66.47625 428.256 
L 847.67625 428.256 
L 847.67625 65.952 
L 66.47625 65.952 
z
" style="fill: #ffffff"/>
   </g>
   <g id="matplotlib.axis_1">
    <g id="xtick_1">
     <g id="line2d_1">
      <defs>
       <path id="m605358a259" d="M 0 0 
L 0 3.5 
" style="stroke: #4b5563; stroke-width: 0.8"/>
      </defs>
      <g>
       <use xlink:href="#m605358a259" x="66.47625" y="428.256" style="fill: #4b5563; stroke: #4b5563; stroke-width: 0.8"/>
      </g>
     </g>
     <g id="text_1">
      <text style="font-size: 11px; font-family: 'Helvetica Neue', 'Helvetica', 'Arial', 'DejaVu Sans', sans-serif; text-anchor: middle; fill: #4b5563" x="66.47625" y="445.728" transform="rotate(-0 66.47625 445.728)">0</text>
     </g>
    </g>
    <g id="xtick_2">
     <g id="line2d_2">
      <g>
       <use xlink:href="#m605358a259" x="222.71625" y="428.256" style="fill: #4b5563; stroke: #4b5563; stroke-width: 0.8"/>
      </g>
     </g>
     <g id="text_2">
      <text style="font-size: 11px; font-family: 'Helvetica Neue', 'Helvetica', 'Arial', 'DejaVu Sans', sans-serif; text-anchor: middle; fill: #4b5563" x="222.71625" y="445.728" transform="rotate(-0 222.71625 445.728)">20</text>
     </g>
    </g>
    <g id="xtick_3">
     <g id="line2d_3">
      <g>
       <use xlink:href="#m605358a259" x="378.95625" y="428.256" style="fill: #4b5563; stroke: #4b5563; stroke-width: 0.8"/>
      </g>
     </g>
     <g id="text_3">
      <text style="font-size: 11px; font-family: 'Helvetica Neue', 'Helvetica', 'Arial', 'DejaVu Sans', sans-serif; text-anchor: middle; fill: #4b5563" x="378.95625" y="445.728" transform="rotate(-0 378.95625 445.728)">40</text>
     </g>
    </g>
    <g id="xtick_4">
     <g id="line2d_4">
      <g>
       <use xlink:href="#m605358a259" x="535.19625" y="428.256" style="fill: #4b5563; stroke: #4b5563; stroke-width: 0.8"/>
      </g>
     </g>
     <g id="text_4">
      <text style="font-size: 11px; font-family: 'Helvetica Neue', 'Helvetica', 'Arial', 'DejaVu Sans', sans-serif; text-anchor: middle; fill: #4b5563" x="535.19625" y="445.728" transform="rotate(-0 535.19625 445.728)">60</text>
     </g>
    </g>
    <g id="xtick_5">
     <g id="line2d_5">
      <g>
       <use xlink:href="#m605358a259" x="691.43625" y="428.256" style="fill: #4b5563; stroke: #4b5563; stroke-width: 0.8"/>
      </g>
     </g>
     <g id="text_5">
      <text style="font-size: 11px; font-family: 'Helvetica Neue', 'Helvetica', 'Arial', 'DejaVu Sans', sans-serif; text-anchor: middle; fill: #4b5563" x="691.43625" y="445.728" transform="rotate(-0 691.43625 445.728)">80</text>
     </g>
    </g>
    <g id="xtick_6">
     <g id="line2d_6">
      <g>
       <use xlink:href="#m605358a259" x="847.67625" y="428.256" style="fill: #4b5563; stroke: #4b5563; stroke-width: 0.8"/>
      </g>
     </g>
     <g id="text_6">
      <text style="font-size: 11px; font-family: 'Helvetica Neue', 'Helvetica', 'Arial', 'DejaVu Sans', sans-serif; text-anchor: middle; fill: #4b5563" x="847.67625" y="445.728" transform="rotate(-0 847.67625 445.728)">100</text>
     </g>
    </g>
    <g id="text_7">
     <text style="font-size: 11px; font-family: 'Helvetica Neue', 'Helvetica', 'Arial', 'DejaVu Sans', sans-serif; text-anchor: middle; fill: #4b5563" x="457.07625" y="462.543" transform="rotate(-0 457.07625 462.543)">Workload percentile within each policy</text>
    </g>
   </g>
   <g id="matplotlib.axis_2">
    <g id="ytick_1">
     <g id="line2d_7">
      <path d="M 66.47625 412.676147 
L 847.67625 412.676147 
" clip-path="url(#p606a974cc4)" style="fill: none; stroke: #d1d5db; stroke-opacity: 0.7; stroke-width: 0.7; stroke-linecap: square"/>
     </g>
     <g id="line2d_8">
      <defs>
       <path id="m24b6d6bbbf" d="M 0 0 
L -3.5 0 
" style="stroke: #4b5563; stroke-width: 0.8"/>
      </defs>
      <g>
       <use xlink:href="#m24b6d6bbbf" x="66.47625" y="412.676147" style="fill: #4b5563; stroke: #4b5563; stroke-width: 0.8"/>
      </g>
     </g>
     <g id="text_8">
      <text style="font-size: 11px; font-family: 'Helvetica Neue', 'Helvetica', 'Arial', 'DejaVu Sans', sans-serif; text-anchor: end; fill: #4b5563" x="59.47625" y="417.912147" transform="rotate(-0 59.47625 417.912147)">0</text>
     </g>
    </g>
    <g id="ytick_2">
     <g id="line2d_9">
      <path d="M 66.47625 360.743302 
L 847.67625 360.743302 
" clip-path="url(#p606a974cc4)" style="fill: none; stroke: #d1d5db; stroke-opacity: 0.7; stroke-width: 0.7; stroke-linecap: square"/>
     </g>
     <g id="line2d_10">
      <g>
       <use xlink:href="#m24b6d6bbbf" x="66.47625" y="360.743302" style="fill: #4b5563; stroke: #4b5563; stroke-width: 0.8"/>
      </g>
     </g>
     <g id="text_9">
      <text style="font-size: 11px; font-family: 'Helvetica Neue', 'Helvetica', 'Arial', 'DejaVu Sans', sans-serif; text-anchor: end; fill: #4b5563" x="59.47625" y="365.979302" transform="rotate(-0 59.47625 365.979302)">0.1%</text>
     </g>
    </g>
    <g id="ytick_3">
     <g id="line2d_11">
      <path d="M 66.47625 293.972502 
L 847.67625 293.972502 
" clip-path="url(#p606a974cc4)" style="fill: none; stroke: #d1d5db; stroke-opacity: 0.7; stroke-width: 0.7; stroke-linecap: square"/>
     </g>
     <g id="line2d_12">
      <g>
       <use xlink:href="#m24b6d6bbbf" x="66.47625" y="293.972502" style="fill: #4b5563; stroke: #4b5563; stroke-width: 0.8"/>
      </g>
     </g>
     <g id="text_10">
      <text style="font-size: 11px; font-family: 'Helvetica Neue', 'Helvetica', 'Arial', 'DejaVu Sans', sans-serif; text-anchor: end; fill: #4b5563" x="59.47625" y="299.208502" transform="rotate(-0 59.47625 299.208502)">1%</text>
     </g>
    </g>
    <g id="ytick_4">
     <g id="line2d_13">
      <path d="M 66.47625 227.201702 
L 847.67625 227.201702 
" clip-path="url(#p606a974cc4)" style="fill: none; stroke: #d1d5db; stroke-opacity: 0.7; stroke-width: 0.7; stroke-linecap: square"/>
     </g>
     <g id="line2d_14">
      <g>
       <use xlink:href="#m24b6d6bbbf" x="66.47625" y="227.201702" style="fill: #4b5563; stroke: #4b5563; stroke-width: 0.8"/>
      </g>
     </g>
     <g id="text_11">
      <text style="font-size: 11px; font-family: 'Helvetica Neue', 'Helvetica', 'Arial', 'DejaVu Sans', sans-serif; text-anchor: end; fill: #4b5563" x="59.47625" y="232.437702" transform="rotate(-0 59.47625 232.437702)">10%</text>
     </g>
    </g>
    <g id="ytick_5">
     <g id="line2d_15">
      <path d="M 66.47625 160.430902 
L 847.67625 160.430902 
" clip-path="url(#p606a974cc4)" style="fill: none; stroke: #d1d5db; stroke-opacity: 0.7; stroke-width: 0.7; stroke-linecap: square"/>
     </g>
     <g id="line2d_16">
      <g>
       <use xlink:href="#m24b6d6bbbf" x="66.47625" y="160.430902" style="fill: #4b5563; stroke: #4b5563; stroke-width: 0.8"/>
      </g>
     </g>
     <g id="text_12">
      <text style="font-size: 11px; font-family: 'Helvetica Neue', 'Helvetica', 'Arial', 'DejaVu Sans', sans-serif; text-anchor: end; fill: #4b5563" x="59.47625" y="165.666902" transform="rotate(-0 59.47625 165.666902)">100%</text>
     </g>
    </g>
    <g id="ytick_6">
     <g id="line2d_17">
      <path d="M 66.47625 93.660102 
L 847.67625 93.660102 
" clip-path="url(#p606a974cc4)" style="fill: none; stroke: #d1d5db; stroke-opacity: 0.7; stroke-width: 0.7; stroke-linecap: square"/>
     </g>
     <g id="line2d_18">
      <g>
       <use xlink:href="#m24b6d6bbbf" x="66.47625" y="93.660102" style="fill: #4b5563; stroke: #4b5563; stroke-width: 0.8"/>
      </g>
     </g>
     <g id="text_13">
      <text style="font-size: 11px; font-family: 'Helvetica Neue', 'Helvetica', 'Arial', 'DejaVu Sans', sans-serif; text-anchor: end; fill: #4b5563" x="59.47625" y="98.896102" transform="rotate(-0 59.47625 98.896102)">1000%</text>
     </g>
    </g>
    <g id="text_14">
     <text style="font-size: 11px; font-family: 'Helvetica Neue', 'Helvetica', 'Arial', 'DejaVu Sans', sans-serif; text-anchor: middle; fill: #4b5563" x="17.672" y="247.104" transform="rotate(-90 17.672 247.104)">Mean regret vs. eager oracle (lower is better)</text>
    </g>
   </g>
   <g id="line2d_19">
    <path d="M 66.47625 160.430902 
L 847.67625 160.430902 
" clip-path="url(#p606a974cc4)" style="fill: none; stroke-dasharray: 4.07,1.76; stroke-dashoffset: 0; stroke: #dc2626; stroke-width: 1.1"/>
   </g>
   <g id="patch_3">
    <path d="M 66.47625 428.256 
L 66.47625 65.952 
" style="fill: none; stroke: #d1d5db; stroke-width: 0.8; stroke-linejoin: miter; stroke-linecap: square"/>
   </g>
   <g id="patch_4">
    <path d="M 66.47625 428.256 
L 847.67625 428.256 
" style="fill: none; stroke: #d1d5db; stroke-width: 0.8; stroke-linejoin: miter; stroke-linecap: square"/>
   </g>
   <g id="line2d_20">
    <path d="M 66.47625 412.676147 
L 239.760614 412.676147 
L 242.601341 408.535801 
L 245.442068 406.395492 
L 248.282795 402.187062 
L 251.123523 399.729133 
L 253.96425 397.121013 
L 256.804977 394.904675 
L 259.645705 386.786377 
L 262.486432 385.360561 
L 265.327159 382.316517 
L 268.167886 380.465735 
L 271.008614 378.404209 
L 273.849341 372.909921 
L 276.690068 370.82113 
L 279.530795 367.268872 
L 282.371523 361.687182 
L 285.21225 359.223114 
L 288.052977 357.590363 
L 290.893705 354.834912 
L 293.734432 350.393401 
L 296.575159 350.313574 
L 299.415886 348.156169 
L 302.256614 345.576223 
L 305.097341 342.240905 
L 307.938068 338.240985 
L 310.778795 337.721186 
L 313.619523 336.465154 
L 316.46025 334.867563 
L 319.300977 332.028603 
L 322.141705 329.540848 
L 324.982432 329.400998 
L 327.823159 328.369111 
L 330.663886 327.973666 
L 333.504614 326.581979 
L 336.345341 325.849784 
L 339.186068 324.673479 
L 342.026795 324.318759 
L 344.867523 321.114769 
L 347.70825 320.343003 
L 350.548977 320.332616 
L 353.389705 317.483329 
L 356.230432 317.316832 
L 359.071159 315.686656 
L 361.911886 315.27424 
L 364.752614 313.822438 
L 367.593341 313.264658 
L 370.434068 313.194662 
L 373.274795 312.529228 
L 376.115523 312.10243 
L 378.95625 310.173163 
L 381.796977 309.013952 
L 384.637705 307.583148 
L 387.478432 306.530328 
L 390.319159 305.140199 
L 396.000614 300.937611 
L 401.682068 300.021095 
L 407.363523 299.979092 
L 410.20425 298.836647 
L 413.044977 298.383417 
L 415.885705 297.809335 
L 418.726432 297.383401 
L 421.567159 296.435485 
L 424.407886 295.964278 
L 427.248614 294.807825 
L 430.089341 293.034861 
L 435.770795 292.669132 
L 438.611523 292.482095 
L 441.45225 290.914052 
L 444.292977 287.780438 
L 447.133705 286.352174 
L 449.974432 285.332305 
L 452.815159 285.178874 
L 455.655886 284.637707 
L 461.337341 283.778009 
L 464.178068 283.727287 
L 467.018795 283.53001 
L 469.859523 283.215382 
L 472.70025 281.968036 
L 475.540977 281.739389 
L 478.381705 281.667877 
L 484.063159 280.875696 
L 486.903886 280.833078 
L 492.585341 280.186062 
L 495.426068 280.16886 
L 498.266795 279.650698 
L 501.107523 278.538345 
L 503.94825 277.972884 
L 506.788977 277.02446 
L 512.470432 276.312855 
L 515.311159 274.518022 
L 523.833341 273.412089 
L 526.674068 272.320285 
L 529.514795 270.400331 
L 532.355523 269.997441 
L 543.718432 269.518304 
L 546.559159 269.513238 
L 549.399886 268.760274 
L 555.081341 267.640501 
L 557.922068 265.343583 
L 560.762795 264.568526 
L 563.603523 264.346432 
L 566.44425 262.614464 
L 569.284977 261.413694 
L 572.125705 261.311991 
L 574.966432 260.841861 
L 577.807159 259.381286 
L 580.647886 258.317552 
L 583.488614 257.563338 
L 586.329341 257.251903 
L 589.170068 257.201507 
L 594.851523 256.643321 
L 597.69225 255.944903 
L 600.532977 255.781731 
L 606.214432 255.091986 
L 611.895886 253.226924 
L 614.736614 251.078975 
L 617.577341 250.543926 
L 620.418068 250.307236 
L 623.258795 249.954772 
L 626.099523 249.376882 
L 628.94025 249.120167 
L 631.780977 249.00738 
L 634.621705 248.576467 
L 637.462432 248.482473 
L 640.303159 247.052202 
L 645.984614 245.573819 
L 648.825341 241.952348 
L 651.666068 238.826681 
L 654.506795 238.037111 
L 657.347523 231.19407 
L 660.18825 227.360963 
L 663.028977 226.761591 
L 665.869705 217.643143 
L 668.710432 216.61897 
L 671.551159 213.492526 
L 674.391886 175.261819 
L 677.232614 174.38724 
L 680.073341 161.964524 
L 682.914068 157.574046 
L 685.754795 156.404312 
L 688.595523 156.260044 
L 691.43625 150.723792 
L 694.276977 149.921789 
L 697.117705 149.308696 
L 699.958432 141.778342 
L 702.799159 141.360984 
L 705.639886 139.350743 
L 711.321341 139.041947 
L 717.002795 138.488552 
L 719.843523 137.181069 
L 722.68425 136.160351 
L 725.524977 135.944127 
L 728.365705 135.496372 
L 734.047159 132.53828 
L 736.887886 132.282314 
L 739.728614 131.258273 
L 745.410068 131.229406 
L 748.250795 130.136694 
L 751.091523 129.543745 
L 756.772977 129.438978 
L 759.613705 128.820767 
L 762.454432 128.774016 
L 765.295159 128.28482 
L 770.976614 128.175318 
L 773.817341 126.256954 
L 776.658068 125.49025 
L 779.498795 125.396781 
L 782.339523 124.610084 
L 785.18025 124.52608 
L 788.020977 124.177289 
L 790.861705 123.042712 
L 793.702432 121.681867 
L 796.543159 121.233909 
L 799.383886 118.48508 
L 802.224614 111.119991 
L 805.065341 108.592303 
L 807.906068 108.085399 
L 810.746795 107.001936 
L 813.587523 106.869451 
L 816.42825 103.246164 
L 819.268977 102.056002 
L 822.109705 99.312509 
L 827.791159 99.00238 
L 830.631886 98.474672 
L 833.472614 96.815066 
L 836.313341 96.410194 
L 839.154068 94.981295 
L 841.994795 91.257368 
L 844.835523 80.032774 
L 847.67625 77.420438 
L 847.67625 77.420438 
" clip-path="url(#p606a974cc4)" style="fill: none; stroke: #6b7280; stroke-width: 2.2; stroke-linecap: square"/>
   </g>
   <g id="text_15">
    <text style="font-size: 9px; font-family: 'Helvetica Neue', 'Helvetica', 'Arial', 'DejaVu Sans', sans-serif; text-anchor: start; fill: #dc2626" x="74.28825" y="156.63132" transform="rotate(-0 74.28825 156.63132)">100% regret</text>
   </g>
   <g id="patch_5">
    <path d="M 607.047335 108.591008 
Q 648.551307 118.353089 688.749278 127.807988 
" style="fill: none; stroke: #6b7280; stroke-width: 1.2; stroke-linecap: round"/>
    <path d="M 685.313455 124.945275 
L 688.749278 127.807988 
L 684.397614 128.839018 
" style="fill: none; stroke: #6b7280; stroke-width: 1.2; stroke-linecap: round"/>
   </g>
   <g id="text_16">
    <text style="font-size: 10px; font-family: 'Helvetica Neue', 'Helvetica', 'Arial', 'DejaVu Sans', sans-serif; text-anchor: start; fill: #111827" x="503.94825" y="104.00303" transform="rotate(-0 503.94825 104.00303)">v1: 59 workloads above 100%</text>
   </g>
   <g id="patch_6">
    <path d="M 592.39792 220.924877 
Q 719.041852 233.624254 844.350837 246.189767 
" style="fill: none; stroke: #2563eb; stroke-width: 1.2; stroke-linecap: round"/>
    <path d="M 840.570349 243.800644 
L 844.350837 246.189767 
L 840.171246 247.780684 
" style="fill: none; stroke: #2563eb; stroke-width: 1.2; stroke-linecap: round"/>
   </g>
   <g id="text_17">
    <text style="font-size: 10px; font-family: 'Helvetica Neue', 'Helvetica', 'Arial', 'DejaVu Sans', sans-serif; text-anchor: start; fill: #2563eb" x="496.13625" y="219.593614" transform="rotate(-0 496.13625 219.593614)">v2 maximum: 5.14%</text>
   </g>
   <g id="line2d_21">
    <path d="M 66.47625 412.676147 
L 299.415886 412.676147 
L 302.256614 408.535801 
L 305.097341 408.156431 
L 307.938068 405.350188 
L 310.778795 399.731262 
L 313.619523 392.387594 
L 316.46025 391.202539 
L 319.300977 388.71158 
L 322.141705 385.956335 
L 324.982432 380.260444 
L 327.823159 378.683503 
L 330.663886 377.672111 
L 333.504614 366.010695 
L 336.345341 365.690685 
L 339.186068 363.290868 
L 342.026795 359.831443 
L 344.867523 359.322483 
L 347.70825 358.050295 
L 350.548977 354.804747 
L 353.389705 354.386183 
L 356.230432 353.196509 
L 359.071159 352.200764 
L 364.752614 351.971064 
L 367.593341 350.441558 
L 370.434068 350.243857 
L 373.274795 349.690804 
L 376.115523 348.797535 
L 378.95625 342.696009 
L 381.796977 342.304017 
L 384.637705 341.764261 
L 387.478432 340.041087 
L 390.319159 338.151409 
L 393.159886 337.951999 
L 398.841341 336.836356 
L 401.682068 336.763525 
L 404.522795 334.465084 
L 407.363523 331.608001 
L 410.20425 330.293388 
L 413.044977 330.258858 
L 415.885705 328.733913 
L 418.726432 328.091882 
L 421.567159 328.042745 
L 424.407886 327.065597 
L 427.248614 326.766237 
L 432.930068 326.531535 
L 435.770795 324.698384 
L 438.611523 324.212217 
L 441.45225 321.304933 
L 444.292977 321.250014 
L 447.133705 320.913646 
L 449.974432 320.776668 
L 452.815159 320.756783 
L 455.655886 320.332616 
L 458.496614 318.216811 
L 461.337341 318.20994 
L 464.178068 315.630679 
L 467.018795 315.537008 
L 475.540977 314.168869 
L 478.381705 312.142741 
L 481.222432 311.71905 
L 484.063159 309.933085 
L 486.903886 309.567089 
L 489.744614 309.053285 
L 495.426068 308.839411 
L 498.266795 307.706637 
L 501.107523 307.587192 
L 503.94825 306.469063 
L 506.788977 305.725575 
L 509.629705 304.763895 
L 512.470432 304.178052 
L 515.311159 303.15679 
L 518.151886 302.642735 
L 520.992614 301.724526 
L 523.833341 300.620623 
L 526.674068 300.010704 
L 529.514795 299.172912 
L 535.19625 298.243328 
L 538.036977 296.554374 
L 540.877705 296.407639 
L 543.718432 295.521031 
L 546.559159 293.613214 
L 549.399886 293.025278 
L 552.240614 292.814811 
L 563.603523 292.502565 
L 566.44425 291.723791 
L 569.284977 291.717228 
L 572.125705 289.772591 
L 580.647886 288.353742 
L 583.488614 288.239952 
L 592.010795 287.321016 
L 594.851523 287.28138 
L 597.69225 286.963865 
L 600.532977 286.159905 
L 603.373705 285.778841 
L 606.214432 285.73175 
L 614.736614 285.182992 
L 617.577341 284.117264 
L 626.099523 283.824214 
L 628.94025 283.325545 
L 631.780977 283.263736 
L 634.621705 282.717203 
L 640.303159 280.983249 
L 654.506795 280.391218 
L 657.347523 280.03633 
L 660.18825 278.999011 
L 665.869705 278.88578 
L 671.551159 278.769334 
L 677.232614 278.380838 
L 682.914068 277.435869 
L 688.595523 276.169492 
L 691.43625 276.05171 
L 694.276977 275.722398 
L 697.117705 275.1572 
L 699.958432 274.89837 
L 702.799159 274.297427 
L 705.639886 274.020481 
L 711.321341 273.887197 
L 714.162068 273.644972 
L 717.002795 273.600405 
L 719.843523 273.21714 
L 722.68425 273.117195 
L 725.524977 272.440703 
L 728.365705 271.636659 
L 734.047159 271.424011 
L 736.887886 271.009051 
L 739.728614 270.813238 
L 742.569341 270.455837 
L 745.410068 270.292698 
L 751.091523 270.218807 
L 753.93225 269.082453 
L 756.772977 268.971316 
L 762.454432 267.565654 
L 765.295159 265.89239 
L 768.135886 265.773962 
L 773.817341 265.101638 
L 776.658068 264.395419 
L 782.339523 264.226775 
L 785.18025 263.700131 
L 790.861705 263.496701 
L 793.702432 263.206419 
L 796.543159 261.134637 
L 802.224614 260.454474 
L 805.065341 260.264973 
L 807.906068 260.19751 
L 810.746795 259.975257 
L 813.587523 259.089706 
L 816.42825 256.578357 
L 819.268977 254.781349 
L 822.109705 254.50761 
L 824.950432 252.120926 
L 827.791159 250.59812 
L 830.631886 250.11241 
L 833.472614 249.31998 
L 839.154068 248.879849 
L 844.835523 247.30219 
L 847.67625 246.523227 
L 847.67625 246.523227 
" clip-path="url(#p606a974cc4)" style="fill: none; stroke: #2563eb; stroke-width: 2.2; stroke-linecap: square"/>
   </g>
   <g id="legend_1">
    <g id="line2d_22">
     <path d="M 76.37625 82.474 
L 87.37625 82.474 
L 98.37625 82.474 
" style="fill: none; stroke: #6b7280; stroke-width: 2.2; stroke-linecap: square"/>
    </g>
    <g id="text_18">
     <text style="font-size: 11px; font-family: 'Helvetica Neue', 'Helvetica', 'Arial', 'DejaVu Sans', sans-serif; text-anchor: start; fill: #111827" x="107.17625" y="86.324" transform="rotate(-0 107.17625 86.324)">v1 event timing</text>
    </g>
    <g id="line2d_23">
     <path d="M 203.964219 82.474 
L 214.964219 82.474 
L 225.964219 82.474 
" style="fill: none; stroke: #2563eb; stroke-width: 2.2; stroke-linecap: square"/>
    </g>
    <g id="text_19">
     <text style="font-size: 11px; font-family: 'Helvetica Neue', 'Helvetica', 'Arial', 'DejaVu Sans', sans-serif; text-anchor: start; fill: #111827" x="234.764219" y="86.324" transform="rotate(-0 234.764219 86.324)">v2 eager timing</text>
    </g>
   </g>
  </g>
  <g id="text_20">
   <text style="font-size: 13.2px; font-family: 'Helvetica Neue', 'Helvetica', 'Arial', 'DejaVu Sans', sans-serif; text-anchor: start; fill: #111827" x="21.11625" y="19.7664" transform="rotate(-0 21.11625 19.7664)">Eager regret: v2 removes the measured high-regret tail</text>
  </g>
  <g id="text_21">
   <text style="font-size: 11px; font-family: 'Helvetica Neue', 'Helvetica', 'Arial', 'DejaVu Sans', sans-serif; text-anchor: start; fill: #4b5563" x="21.11625" y="44.6" transform="rotate(-0 21.11625 44.6)">Each curve sorts its own 276-workload distribution · lower is better.</text>
  </g>
 </g>
 <defs>
  <clipPath id="p606a974cc4">
   <rect x="66.47625" y="65.952" width="781.2" height="362.304"/>
  </clipPath>
 </defs>
</svg>
